<?xml version="1.0" encoding="UTF-8" standalone="no"?>
<!-- Created with Inkscape (http://www.inkscape.org/) -->

<svg
   width="135.46683mm"
   height="135.46664mm"
   viewBox="0 0 135.46683 135.46665"
   version="1.1"
   id="svg5"
   xml:space="preserve"
   xmlns="http://www.w3.org/2000/svg"
   xmlns:svg="http://www.w3.org/2000/svg"><defs
     id="defs2" /><g
     id="layer1"
     transform="translate(14.429826,154.07671)"><g
       style="clip-rule:evenodd;fill-rule:evenodd;stroke-linejoin:round;stroke-miterlimit:2"
       id="g2220"
       transform="matrix(0.26458333,0,0,0.26458333,-14.429826,-154.07671)"><g
         id="g1007"><rect
           x="0"
           y="0"
           width="512.00061"
           height="511.99991"
           style="fill:none;stroke-width:0.355556"
           id="rect9865" /><path
           d="m 222.8232,309.79411 c 0,-4.36124 -3.44678,-7.29832 -7.70458,-6.54766 l -50.89079,8.97209 c -4.25779,0.75065 -7.70458,4.90308 -7.70458,9.26431 v 96.23598 c 0,4.37119 3.44679,7.30827 7.70458,6.55761 l 50.89079,-8.97209 c 4.2578,-0.75065 7.70458,-4.90308 7.70458,-9.27427 z"
           style="fill:#8f8f9d;fill-opacity:1;stroke-width:1.0047"
           id="path9867" /><path
           d="m 355.3862,94.305304 c 0,-4.361237 -3.44678,-7.298315 -7.70458,-6.547662 l -50.89079,8.972095 c -4.25779,0.750653 -7.70458,4.903073 -7.70458,9.264313 v 96.23597 c 0,4.3712 3.44679,7.30827 7.70458,6.55762 l 50.89079,-8.97209 c 4.2578,-0.75066 7.70458,-4.90308 7.70458,-9.27427 z"
           style="fill:#ff5d51;fill-opacity:1;stroke-width:1.0047"
           id="path9871" /><path
           d="m 231.08979,116.76741 c -1.96555,-4.32905 -7.24916,-7.18126 -11.81108,-6.37699 l -54.52578,9.61296 c -4.56192,0.80427 -6.66428,4.95863 -4.69872,9.28768 l 120.73971,265.92412 c 1.96556,4.32906 7.26053,7.20628 11.82244,6.40201 l 54.52579,-9.61295 c 4.56192,-0.80427 6.65291,-4.98365 4.68736,-9.31271 z"
           style="fill:#8f8f9d;fill-opacity:1;stroke-width:1.71334"
           id="path9875" /></g></g></g></svg>
